<?xml version="1.0" encoding="UTF-8" standalone="no"?>
<svg width="800" height="450" viewBox="0 0 800 450" fill="none" xmlns="http://www.w3.org/2000/svg">
  <!-- Dashboard Background -->
  <rect width="800" height="450" rx="12" fill="#FFFFFF"/>
  
  <!-- Header -->
  <rect x="0" y="0" width="800" height="50" rx="12" fill="#F1F5F9"/>
  <circle cx="25" cy="25" r="10" fill="#0066FF"/>
  <rect x="45" y="20" width="100" height="10" rx="2" fill="#64748B"/>
  <rect x="680" y="15" width="100" height="20" rx="10" fill="#0066FF"/>
  <rect x="690" y="20" width="80" height="10" rx="2" fill="#FFFFFF"/>
  
  <!-- Left Sidebar -->
  <rect x="0" y="50" width="200" height="400" fill="#F8FAFC"/>
  <rect x="20" y="80" width="160" height="10" rx="2" fill="#94A3B8"/>
  <rect x="20" y="110" width="160" height="10" rx="2" fill="#94A3B8"/>
  <rect x="20" y="140" width="160" height="10" rx="2" fill="#94A3B8"/>
  <rect x="20" y="170" width="160" height="10" rx="2" fill="#94A3B8"/>
  <rect x="20" y="200" width="160" height="10" rx="2" fill="#94A3B8"/>
  
  <!-- Main Content Area -->
  
  <!-- Market Overview Card -->
  <rect x="220" y="70" width="560" height="100" rx="8" fill="#F1F5F9"/>
  <rect x="240" y="85" width="120" height="15" rx="2" fill="#475569"/>
  <rect x="240" y="110" width="80" height="40" rx="4" fill="#FFFFFF"/>
  <path d="M250 140 L270 120 L290 130 L310 110" stroke="#0066FF" stroke-width="2"/>
  
  <rect x="340" y="110" width="80" height="40" rx="4" fill="#FFFFFF"/>
  <path d="M350 130 L370 140 L390 120 L410 130" stroke="#10B981" stroke-width="2"/>
  
  <rect x="440" y="110" width="80" height="40" rx="4" fill="#FFFFFF"/>
  <path d="M450 125 L470 140 L490 110 L510 125" stroke="#F59E0B" stroke-width="2"/>
  
  <rect x="540" y="110" width="80" height="40" rx="4" fill="#FFFFFF"/>
  <path d="M550 140 L570 125 L590 135 L610 110" stroke="#EF4444" stroke-width="2"/>
  
  <!-- Chart Area -->
  <rect x="220" y="190" width="360" height="240" rx="8" fill="#F1F5F9"/>
  <rect x="240" y="205" width="150" height="15" rx="2" fill="#475569"/>
  <rect x="240" y="230" width="320" height="180" rx="4" fill="#FFFFFF"/>
  
  <!-- Chart Visualization -->
  <path d="M260 370 L260 250 L580 250" stroke="#CBD5E1" stroke-width="1"/>
  <path d="M260 370 L280 350 L300 360 L320 330 L340 345 L360 320 L380 340 L400 310 L420 290 L440 315 L460 280 L480 270 L500 290 L520 260 L540 280 L560 270" stroke="#0066FF" stroke-width="2" fill="none"/>
  <path d="M260 370 L280 360 L300 345 L320 355 L340 335 L360 350 L380 330 L400 340 L420 325 L440 345 L460 320 L480 330 L500 315 L520 325 L540 305 L560 315" stroke="#EF4444" stroke-width="2" fill="none"/>
  
  <!-- Sentiment Analysis Card -->
  <rect x="600" y="190" width="180" height="110" rx="8" fill="#F1F5F9"/>
  <rect x="620" y="205" width="140" height="15" rx="2" fill="#475569"/>
  
  <!-- Sentiment Gauge -->
  <circle cx="690" cy="260" r="30" stroke="#E2E8F0" stroke-width="8" fill="none"/>
  <path d="M690 260 L690 230 A30 30 0 0 1 715 275 Z" fill="#10B981"/>
  <circle cx="690" cy="260" r="15" fill="#FFFFFF" stroke="#E2E8F0" stroke-width="1"/>
  <rect x="685" y="285" width="10" height="10" rx="2" fill="#10B981"/>
  <rect x="700" y="285" width="60" height="10" rx="2" fill="#64748B"/>
  
  <!-- Recommendations Card -->
  <rect x="600" y="320" width="180" height="110" rx="8" fill="#F1F5F9"/>
  <rect x="620" y="335" width="140" height="15" rx="2" fill="#475569"/>
  
  <!-- Recommendation Items -->
  <rect x="620" y="360" width="140" height="20" rx="4" fill="#FFFFFF"/>
  <circle cx="630" cy="370" r="5" fill="#10B981"/>
  <rect x="645" y="365" width="100" height="10" rx="2" fill="#64748B"/>
  
  <rect x="620" y="390" width="140" height="20" rx="4" fill="#FFFFFF"/>
  <circle cx="630" cy="400" r="5" fill="#F59E0B"/>
  <rect x="645" y="395" width="100" height="10" rx="2" fill="#64748B"/>
</svg>